<?xml version="1.0" encoding="utf-8"?>
<!-- Generator: Adobe Illustrator 19.2.1, SVG Export Plug-In . SVG Version: 6.00 Build 0)  -->
<svg version="1.1" id="Layer_1" xmlns="http://www.w3.org/2000/svg" xmlns:xlink="http://www.w3.org/1999/xlink" x="0px" y="0px"
	 viewBox="0 0 243.6 331.4" style="enable-background:new 0 0 243.6 331.4;" xml:space="preserve">
<style type="text/css">
	.st0{fill:none;}
	.st1{fill:#F2EA26;}
	.st2{fill:#4CB048;}
	.st3{fill:#188BB0;}
	.st4{fill:#F15F24;}
	.st5{fill:#F16024;}
	.st6{fill:#FFFFFF;}
</style>
<title>LOGOTYP_FINAL</title>
<path class="st0" d="M175.3,266.5c3.5-4.7,7-9.6,10.4-14.6l-31-25.4l53.7-65.4l20.5,16.8c3.1-6.8,5.8-13.8,8.1-20.8l-131.5-108
	l38.6-47c-6.9-1.3-14-2-21-2.1L91.7,38.3L63.3,15c-5.8,3.2-11.4,6.9-16.6,11l147.5,121.2l-54.8,66.7L1.8,100.9
	C0.6,107.8,0,114.8,0,121.8c0,0.7,0,1.4,0,2.1l75.7,62.2l-33.2,40.4c3.6,5.7,7.3,11.4,11,16.9l37.7-45.9L175.3,266.5z"/>
<path class="st1" d="M154.7,226.5l31,25.4c16.3-23.3,32.2-49.2,43.2-74l-20.5-16.8L154.7,226.5z"/>
<path class="st2" d="M194.2,147.2L46.7,26C23,44.5,7,71.2,1.8,100.9l137.5,113L194.2,147.2z"/>
<path class="st3" d="M0,123.9c0.9,28.4,19.8,66.6,42.5,102.6l33.2-40.5L0,123.9z"/>
<path class="st4" d="M175.3,266.5l-84-69l-37.7,45.9c18,26.4,37.2,52,57.6,76.6c3.1,3.7,6.5,7,10.2,10.1l1.6,1.3
	C128,325.7,150.8,299.9,175.3,266.5z"/>
<path class="st3" d="M237.1,157.1c4.1-12.5,6.5-24.5,6.5-35.3c0-58.6-41.8-108.9-99.4-119.7l-38.6,47L237.1,157.1z"/>
<path class="st5" d="M123.2,0c-0.5,0-0.9,0-1.4,0c-20.5,0-40.6,5.1-58.5,15l28.4,23.4L123.2,0z"/>
<path class="st6" d="M120.5,47.3l25.8-31.7l5.6,4.6l-25.8,31.7L120.5,47.3z M142.9,33.2l14.8-8.3l6.2,5.1l-18.1,9l-7,23.3l-5.9-4.8
	l6.5-20.1L142.9,33.2z"/>
<path class="st6" d="M140.9,63.9l25.8-31.7l5.6,4.6l-25.8,31.7L140.9,63.9z M150.6,65.3l6.2,5.1l-3.2,3.9l-6.2-5.1L150.6,65.3z
	 M162.3,50.8l4.2,3.4l-3.3,4l-4.2-3.4L162.3,50.8z M173.2,37.5l6.2,5.1l-3.2,3.9l-6.2-5L173.2,37.5z"/>
<path class="st6" d="M163.1,83c-1.2-1-2.1-2.3-2.8-3.8c-0.5-1.3-0.8-2.7-0.8-4.1c0-1.4,0.3-2.8,0.9-4.2c0.5-1.4,1.3-2.7,2.1-3.9
	l6.6,3.4c-0.5,0.7-1,1.4-1.5,2.1c-0.4,0.7-0.8,1.4-1.1,2.2c-0.3,0.7-0.4,1.4-0.4,2.1c0,0.6,0.2,1.3,0.6,1.8L163.1,83z M180.3,66.4
	l0.2,1.1c0.2,1.3,0.3,2.7,0.4,4c0.1,1.3,0,2.5-0.1,3.8c-0.2,1.3-0.5,2.5-1,3.7c-0.5,1.3-1.2,2.5-2.1,3.5c-0.8,1.1-1.9,1.9-3.1,2.5
	c-1.1,0.6-2.3,0.9-3.5,1c-1.2,0.1-2.5-0.1-3.7-0.5c-1.3-0.4-2.4-1-3.5-1.8l3.5-4.3c0.4,0.3,0.8,0.5,1.2,0.6c0.4,0.1,0.8,0.1,1.2-0.1
	c0.4-0.1,0.8-0.3,1.1-0.6c0.4-0.3,0.7-0.6,1-1c0.5-0.7,1-1.4,1.2-2.2c0.3-0.8,0.5-1.6,0.6-2.5c0.1-0.9,0.1-1.8,0.1-2.6
	c0-0.9-0.1-1.8-0.2-2.6l-0.2-1.2L180.3,66.4z M173.3,66l-0.3-2.3c-0.2-1-0.3-2-0.4-3c-0.1-1-0.1-2,0-3.1c0.1-1.1,0.4-2.1,0.7-3.1
	c0.4-1.1,1.1-2.2,1.8-3.1c0.9-1.1,2-2,3.2-2.7c1.1-0.6,2.3-1,3.6-1.1c1.3-0.1,2.6,0,3.8,0.4c1.4,0.4,2.6,1.1,3.8,1.9l-3.5,4.3
	c-0.4-0.3-0.8-0.4-1.3-0.5c-0.4-0.1-0.9,0-1.3,0.1c-0.4,0.1-0.8,0.3-1.2,0.6c-0.4,0.3-0.7,0.6-1,1c-0.4,0.5-0.7,1.1-1,1.7
	c-0.2,0.6-0.4,1.2-0.5,1.8c-0.1,0.6-0.1,1.2-0.1,1.8c0,0.6,0.1,1.3,0.2,1.9l0.2,1.2c0.1,0.5,0.1,1,0.2,1.6L173.3,66z M190.5,50.6
	c1,0.9,1.9,1.9,2.5,3.1c0.6,1.1,0.9,2.4,1.1,3.6c0.1,1.3,0,2.6-0.4,3.8c-0.4,1.3-1,2.5-1.8,3.6l-0.5,0.7l-6.4-3.8
	c0.1-0.2,0.3-0.3,0.4-0.5c0.2-0.2,0.3-0.3,0.5-0.5c0.3-0.4,0.6-0.9,0.9-1.4c0.3-0.5,0.5-1,0.6-1.5c0.1-0.5,0.2-1,0.1-1.5
	c0-0.5-0.2-1-0.5-1.4L190.5,50.6z"/>
<path class="st6" d="M210.7,68l4,3.3l-3,3.7l-33.3,19.4l-4-3.3l3.2-3.9L210.7,68z M184.1,92.6l8,6.5l-3.2,3.9l-9.5-7.8L184.1,92.6z
	 M205,70l-7-5.7l3.2-3.9l8.5,6.9L205,70z"/>
<path class="st6" d="M223.3,84.6c-0.6-0.4-1.3-0.6-2-0.6c-0.7,0-1.3,0.2-1.9,0.5c-0.6,0.3-1.2,0.7-1.7,1.2c-0.5,0.5-1,1-1.5,1.6
	l-11.3,13.9c-0.5,0.6-0.9,1.2-1.3,1.8c-0.4,0.6-0.7,1.3-0.9,1.9c-0.2,0.6-0.2,1.3-0.1,1.9c0.1,0.7,0.5,1.3,1,1.8l-3.6,4.4
	c-1.4-1.1-2.5-2.6-3.3-4.3c-0.6-1.4-0.9-2.9-0.7-4.5c0.1-1.6,0.6-3.1,1.3-4.5c0.8-1.6,1.8-3.1,2.9-4.4l9.1-11.2
	c1.1-1.4,2.4-2.7,3.8-3.8c1.2-1,2.7-1.8,4.2-2.3c1.5-0.4,3-0.5,4.5-0.2c1.8,0.4,3.4,1.2,4.9,2.4L223.3,84.6z M227.7,81
	c1.4,1.2,2.5,2.6,3.3,4.3c0.6,1.4,0.9,3,0.8,4.5c-0.1,1.6-0.6,3.2-1.3,4.6c-0.8,1.6-1.8,3.1-3,4.5l-9,11.1c-1.1,1.4-2.4,2.7-3.8,3.8
	c-1.2,1-2.7,1.8-4.2,2.3c-1.5,0.4-3.1,0.5-4.6,0.2c-1.8-0.4-3.5-1.2-4.9-2.4l3.6-4.4c0.6,0.4,1.3,0.6,2,0.6c0.7,0,1.3-0.2,1.9-0.5
	c0.6-0.3,1.2-0.7,1.7-1.2c0.5-0.5,1-1.1,1.5-1.6L223,92.9c0.5-0.6,0.9-1.2,1.3-1.8c0.4-0.6,0.7-1.3,0.8-2c0.2-0.6,0.2-1.3,0.1-1.9
	c-0.1-0.7-0.5-1.3-1-1.8L227.7,81z"/>
<path class="st6" d="M15.6,81.1l25.9-31.6l4.4,3.6L19.9,84.6L15.6,81.1z M59,63.8L45.8,80L28.5,91.6l-3-2.5l8-19.3l13.2-16.1L47,54
	L33.5,82.4l25.1-18.9L59,63.8z M34,96.2l25.9-31.7l4.4,3.6L38.3,99.7L34,96.2z"/>
<path class="st6" d="M66.3,88.9l-20,17.3l-5.4-4.4l32.6-26.1l4.3,3.5L66.3,88.9z M78.7,79.9L59.6,117l-5.6-4.5l4.4-8.2l-4.1-3.4
	l3.2-2.9l3.2,2.6L66.8,90L78.7,79.9z"/>
<path class="st6" d="M92,90.8l-0.8,2.5L66.9,123l-4.8-3.9l25.9-31.6L92,90.8z M75.8,127.2l24.4-29.8l4.7,3.8l-25.9,31.6l-3.9-3.2
	L75.8,127.2z M90.3,96.1l-4.4,16.8l-9.3,11.3l4.8-17.3L90.3,96.1z"/>
<path class="st6" d="M108.9,104.6l5.6,4.6l-25.9,31.6l-5.6-4.6L108.9,104.6z"/>
<path class="st6" d="M116.5,130l-20,17.3l-5.4-4.4l32.6-26.1l4.3,3.5L116.5,130z M128.9,121l-19.2,37.1l-5.5-4.5l4.4-8.2l-4.1-3.4
	l3.2-2.9l3.2,2.6l6.2-10.6L128.9,121z"/>
<path class="st6" d="M143.1,138.9c-0.6-0.4-1.3-0.6-2-0.6c-0.7,0-1.3,0.2-1.9,0.5c-0.6,0.3-1.2,0.7-1.7,1.2c-0.5,0.5-1,1.1-1.5,1.6
	l-11.3,13.8c-0.5,0.6-0.9,1.2-1.3,1.8c-0.4,0.6-0.7,1.3-0.9,1.9c-0.2,0.6-0.2,1.3-0.1,1.9c0.1,0.7,0.5,1.3,1,1.8l-3.6,4.4
	c-1.4-1.2-2.5-2.6-3.3-4.3c-0.6-1.4-0.8-3-0.7-4.5c0.2-1.6,0.6-3.1,1.4-4.5c0.8-1.6,1.8-3.1,3-4.5l9-11c1.1-1.4,2.4-2.7,3.8-3.8
	c1.2-1,2.7-1.8,4.2-2.3c1.5-0.4,3-0.5,4.5-0.2c1.8,0.4,3.4,1.2,4.9,2.4L143.1,138.9z M124.3,163.7c0.6,0.4,1.2,0.5,1.9,0.5
	c0.7-0.1,1.3-0.3,1.9-0.7c0.7-0.4,1.3-0.9,1.8-1.5c0.6-0.6,1.2-1.2,1.7-1.9l2.5-3l5.5,4.5l-2,2.4c-1.1,1.3-2.3,2.5-3.6,3.6
	c-1.2,1-2.5,1.8-4,2.3c-1.4,0.5-2.9,0.6-4.4,0.3c-1.7-0.3-3.4-1.1-4.7-2.2L124.3,163.7z M147.6,135.3c1.3,1.1,2.4,2.5,3.1,4
	c0.6,1.3,0.8,2.8,0.7,4.2c-0.1,1.5-0.6,3-1.3,4.4c-0.8,1.6-1.8,3-2.9,4.4l-2,2.4l-5.5-4.5l2.2-2.7c0.5-0.6,1-1.3,1.5-2
	c0.4-0.6,0.8-1.3,1.1-2c0.2-0.6,0.4-1.3,0.3-2c-0.1-0.7-0.4-1.3-0.8-1.8L147.6,135.3z"/>
<path class="st6" d="M142.2,184.7l-5.5-4.5l8.4-10.3l11.3-26.3l5.2,4.2l-14.5,30.8L142.2,184.7z M155.3,164.2l12.8-11.1l6.1,5
	L150.2,175L155.3,164.2z"/>
<path class="st6" d="M90.8,274.5l-5.6-4.6l25.9-31.6l5.6,4.6L90.8,274.5z M117.5,243.6l1.2,1c1.3,1,2.3,2.2,3.1,3.6
	c0.6,1.2,1,2.5,1,3.8c0,1.4-0.4,2.7-0.9,3.9c-0.7,1.4-1.5,2.8-2.6,4c-1.1,1.5-2.5,2.7-4,3.8c-1.2,0.8-2.6,1.3-4,1.5
	c-1.4,0.1-2.7-0.1-4-0.7c-1.5-0.7-2.9-1.5-4.2-2.6l-0.2-0.2l3.3-4l0.5,0.4c0.6,0.5,1.3,0.9,2,1.1c0.6,0.1,1.2,0.1,1.7-0.2
	c0.7-0.3,1.2-0.8,1.7-1.3c0.6-0.6,1.3-1.3,2-2.2c0.5-0.7,1-1.3,1.5-2c0.4-0.6,0.6-1.3,0.6-2c0-0.7-0.2-1.4-0.6-2
	c-0.6-0.9-1.3-1.7-2.2-2.3l0.9,0.7L117.5,243.6z"/>
<path class="st6" d="M103.4,284.8l25.9-31.6l5.6,4.6L109,289.4L103.4,284.8z M113.1,286.2l6,4.9l-3.2,3.9l-6-4.9L113.1,286.2z"/>
</svg>
